<svg width="256" height="256" viewBox="0 0 256 256" fill="none" xmlns="http://www.w3.org/2000/svg">
<rect width="256" height="256" fill="#6F7B84"/>
<rect y="196" width="256" height="60" fill="#626D75"/>
<rect x="196" width="60" height="256" fill="#8999A3"/>
<rect x="196" y="196" width="60" height="60" fill="#78858F"/>
<path fill-rule="evenodd" clip-rule="evenodd" d="M124.805 46.4195C118.512 40.6335 109.89 37.8276 101.937 37.1623C93.9688 36.4956 85.0898 37.8418 77.952 42.201C70.9048 46.5048 65.8468 51.6889 62.7446 58.1508C59.72 64.4512 59 71.061 59 77.3768V77.9476H79V77.3768C79 72.447 79.5988 69.2557 80.7746 66.8065C81.8728 64.5189 83.8968 62.0051 88.3759 59.2697C90.9864 57.6755 95.3408 56.6803 100.27 57.0927C105.215 57.5064 109.156 59.2001 111.269 61.1427C115.882 65.3837 118.036 70.4944 118 75.6169C117.963 80.7529 115.704 86.9513 109.502 93.1442C101.755 100.88 97.9363 104.678 96.0585 106.539C95.1154 107.473 94.6789 107.902 94.486 108.09L94.4458 108.129C94.3683 108.201 94.2918 108.274 94.2161 108.349C92.6057 109.942 91.1071 111.903 90.1581 114.426C89.2364 116.877 89.1218 119.116 89.1218 120.656V127H109.122V121.748C109.382 121.492 109.712 121.165 110.135 120.747C112.042 118.857 115.883 115.036 123.634 107.297C132.931 98.0135 137.919 86.9798 137.999 75.7589C138.079 64.5245 133.218 54.1536 124.805 46.4195Z" fill="white"/>
<path d="M109 139H89V159H109V139Z" fill="white"/>
</svg>
